# This file uses centimeters as units for non-parametric coordinates.

mtllib litterBox.mtl
g default
v 0.586086 -8.869039 2.255785
v 1.075071 -8.869039 2.255785
v 0.586086 -8.704395 2.255785
v 1.075071 -8.704395 2.255785
v 0.586086 -8.704395 1.425358
v 1.075071 -8.704395 1.425358
v 0.586086 -8.869039 1.425358
v 1.075071 -8.869039 1.425358
v 1.075071 -8.704395 1.485965
v 0.586086 -8.704395 1.485965
v 0.586086 -8.869039 1.485965
v 1.075071 -8.869039 1.485965
v 1.075071 -8.704395 2.193941
v 0.586086 -8.704395 2.193941
v 0.586086 -8.869039 2.193941
v 1.075071 -8.869039 2.193941
v 1.020164 -8.795482 2.193941
v 1.020164 -8.704395 2.255785
v 1.020164 -8.869039 2.255785
v 1.020164 -8.869039 2.193941
v 1.020164 -8.869039 1.485965
v 1.020164 -8.869039 1.425358
v 1.020164 -8.704395 1.425358
v 1.020164 -8.795482 1.485965
v 0.636052 -8.795482 2.193941
v 0.636052 -8.704395 2.255785
v 0.636052 -8.869039 2.255785
v 0.636052 -8.869039 2.193941
v 0.636052 -8.869039 1.485965
v 0.636052 -8.869039 1.425358
v 0.636052 -8.704395 1.425358
v 0.636052 -8.795482 1.485965
v 1.075071 -8.704395 1.458397
v 1.020164 -8.704395 1.458397
v 0.636052 -8.704395 1.458397
v 0.586086 -8.704395 1.458397
v 0.586086 -8.869039 1.458397
v 0.636052 -8.869039 1.458397
v 1.020164 -8.869039 1.458397
v 1.075071 -8.869039 1.458397
v 1.047208 -8.704395 1.425358
v 1.047208 -8.869039 1.425358
v 1.047208 -8.869039 1.458397
v 1.047208 -8.869039 1.485965
v 1.047208 -8.869039 2.193941
v 1.047208 -8.869039 2.255785
v 1.047208 -8.704395 2.255785
v 1.047208 -8.704395 2.193941
v 1.047208 -8.704395 1.485965
v 1.047208 -8.704395 1.458397
v 0.636052 -8.704395 2.221165
v 1.020164 -8.704395 2.221165
v 1.047208 -8.704395 2.221165
v 1.075071 -8.704395 2.221165
v 1.075071 -8.869039 2.221165
v 1.047208 -8.869039 2.221165
v 1.020164 -8.869039 2.221165
v 0.636052 -8.869039 2.221165
v 0.586086 -8.869039 2.221165
v 0.586086 -8.704395 2.221165
v 0.610859 -8.704395 2.193941
v 0.610859 -8.704395 2.221165
v 0.610859 -8.704395 2.255785
v 0.610859 -8.869039 2.255785
v 0.610859 -8.869039 2.221165
v 0.610859 -8.869039 2.193941
v 0.610859 -8.869039 1.485965
v 0.610859 -8.869039 1.458397
v 0.610859 -8.869039 1.425358
v 0.610859 -8.704395 1.425358
v 0.610859 -8.704395 1.458397
v 0.610859 -8.704395 1.485965
vt 0.375000 0.000000
vt 0.625000 0.000000
vt 0.375000 0.250000
vt 0.625000 0.250000
vt 0.375000 0.500000
vt 0.625000 0.500000
vt 0.375000 0.750000
vt 0.625000 0.750000
vt 0.375000 1.000000
vt 0.625000 1.000000
vt 0.875000 0.000000
vt 0.875000 0.250000
vt 0.125000 0.000000
vt 0.125000 0.250000
vt 0.625000 0.481754
vt 0.856754 0.250000
vt 0.143246 0.250000
vt 0.375000 0.481754
vt 0.143246 0.000000
vt 0.375000 0.768246
vt 0.625000 0.768246
vt 0.856754 0.000000
vt 0.625000 0.268618
vt 0.643618 0.250000
vt 0.356382 0.250000
vt 0.375000 0.268618
vt 0.356382 0.000000
vt 0.375000 0.981382
vt 0.625000 0.981382
vt 0.643618 0.000000
vt 0.596928 0.268618
vt 0.596928 0.250000
vt 0.596928 0.000000
vt 0.596928 1.000000
vt 0.596928 0.981382
vt 0.596928 0.768246
vt 0.596928 0.750000
vt 0.596928 0.500000
vt 0.596928 0.481754
vt 0.400546 0.268618
vt 0.400546 0.250000
vt 0.400546 0.000000
vt 0.400546 1.000000
vt 0.400546 0.981382
vt 0.400546 0.768246
vt 0.400546 0.750000
vt 0.400546 0.500000
vt 0.400546 0.481754
vt 0.625000 0.490054
vt 0.865054 0.250000
vt 0.596928 0.490054
vt 0.400546 0.490054
vt 0.134946 0.250000
vt 0.375000 0.490054
vt 0.134946 0.000000
vt 0.375000 0.759946
vt 0.400546 0.759946
vt 0.596928 0.759946
vt 0.625000 0.759946
vt 0.865054 0.000000
vt 0.610755 0.500000
vt 0.610755 0.750000
vt 0.610755 0.759946
vt 0.610755 0.768246
vt 0.610755 0.981382
vt 0.610755 0.000000
vt 0.610755 1.000000
vt 0.610755 0.250000
vt 0.610755 0.268618
vt 0.610755 0.481754
vt 0.610755 0.490054
vt 0.400546 0.260422
vt 0.596928 0.260422
vt 0.610755 0.260422
vt 0.625000 0.260422
vt 0.635422 0.250000
vt 0.625000 0.989578
vt 0.635422 0.000000
vt 0.610755 0.989578
vt 0.596928 0.989578
vt 0.400546 0.989578
vt 0.364578 0.000000
vt 0.375000 0.989578
vt 0.364578 0.250000
vt 0.375000 0.260422
vt 0.387665 0.268618
vt 0.387665 0.260422
vt 0.387665 0.250000
vt 0.387665 0.000000
vt 0.387665 1.000000
vt 0.387665 0.989578
vt 0.387665 0.981382
vt 0.387665 0.768246
vt 0.387665 0.759946
vt 0.387665 0.750000
vt 0.387665 0.500000
vt 0.387665 0.490054
vt 0.387665 0.481754
vn 0.000000 0.000000 1.000000
vn 0.000000 0.000000 1.000000
vn 0.000000 0.000000 1.000000
vn 0.000000 0.000000 1.000000
vn -0.028007 0.574361 -0.818123
vn -0.324663 0.889144 -0.322517
vn -0.852013 0.523277 -0.015966
vn -0.208035 0.971572 -0.113002
vn 0.000000 0.000000 -1.000000
vn 0.000000 0.000000 -1.000000
vn 0.000000 0.000000 -1.000000
vn 0.000000 0.000000 -1.000000
vn 0.000000 -1.000000 0.000000
vn 0.000000 -1.000000 0.000000
vn 0.000000 -1.000000 0.000000
vn 0.000000 -1.000000 0.000000
vn 1.000000 0.000000 0.000000
vn 1.000000 0.000000 0.000000
vn 1.000000 0.000000 0.000000
vn 1.000000 0.000000 0.000000
vn -1.000000 0.000000 0.000000
vn -1.000000 0.000000 0.000000
vn -1.000000 0.000000 0.000000
vn -1.000000 0.000000 0.000000
vn -0.207953 0.971595 0.112956
vn -0.851959 0.523364 0.015962
vn -0.333568 0.884107 0.327242
vn -0.028547 0.566573 0.823517
vn -1.000000 0.000000 0.000000
vn -1.000000 0.000000 0.000000
vn -1.000000 0.000000 0.000000
vn -1.000000 0.000000 0.000000
vn 0.000000 -1.000000 0.000000
vn 0.000000 -1.000000 0.000000
vn 0.000000 -1.000000 0.000000
vn 0.000000 -1.000000 0.000000
vn 1.000000 0.000000 0.000000
vn 1.000000 0.000000 0.000000
vn 1.000000 0.000000 0.000000
vn 1.000000 0.000000 0.000000
vn 0.028093 0.573520 -0.818709
vn 0.208882 0.971339 -0.113436
vn 0.000000 0.000000 1.000000
vn 0.000000 0.000000 1.000000
vn 0.000000 -1.000000 0.000000
vn 0.000000 -1.000000 0.000000
vn 0.000000 -1.000000 0.000000
vn 0.000000 -1.000000 0.000000
vn 0.000000 0.000000 -1.000000
vn 0.000000 0.000000 -1.000000
vn 0.208800 0.971363 0.113390
vn 0.028633 0.565733 0.824091
vn 0.352074 0.877438 -0.325802
vn 0.872816 0.487811 -0.015236
vn 0.000000 0.000000 1.000000
vn 0.000000 0.000000 1.000000
vn 0.000000 -1.000000 0.000000
vn 0.000000 -1.000000 0.000000
vn 0.000000 -1.000000 0.000000
vn 0.000000 -1.000000 0.000000
vn 0.000000 0.000000 -1.000000
vn 0.000000 0.000000 -1.000000
vn 0.872769 0.487896 0.015232
vn 0.361490 0.871889 0.330355
vn 0.000000 1.000000 0.000000
vn 0.000000 1.000000 0.000000
vn 0.000000 1.000000 0.000000
vn 0.000000 1.000000 0.000000
vn -1.000000 0.000000 0.000000
vn -1.000000 0.000000 0.000000
vn 0.000000 -1.000000 0.000000
vn 0.000000 -1.000000 0.000000
vn 0.000000 -1.000000 0.000000
vn 0.000000 -1.000000 0.000000
vn 1.000000 0.000000 0.000000
vn 1.000000 0.000000 0.000000
vn 0.000000 0.000000 -1.000000
vn 0.000000 0.000000 -1.000000
vn 0.000000 -1.000000 0.000000
vn 0.000000 -1.000000 0.000000
vn 0.000000 -1.000000 0.000000
vn 0.000000 -1.000000 0.000000
vn 0.000000 -1.000000 0.000000
vn 0.000000 0.000000 1.000000
vn 0.000000 0.000000 1.000000
vn 0.000000 1.000000 0.000000
vn 0.000000 1.000000 0.000000
vn 0.000000 1.000000 0.000000
vn 0.000000 1.000000 0.000000
vn 0.000000 1.000000 0.000000
vn 0.000000 1.000000 0.000000
vn 0.000000 1.000000 0.000000
vn 0.000000 1.000000 0.000000
vn 0.000000 1.000000 0.000000
vn 1.000000 0.000000 0.000000
vn 1.000000 0.000000 0.000000
vn 0.000000 -1.000000 0.000000
vn 0.000000 -1.000000 0.000000
vn 0.000000 -1.000000 0.000000
vn 0.000000 -1.000000 0.000000
vn 0.000000 -1.000000 0.000000
vn -1.000000 0.000000 0.000000
vn -1.000000 0.000000 0.000000
vn 0.000000 1.000000 0.000000
vn 0.000000 1.000000 0.000000
vn 0.000000 1.000000 0.000000
vn 0.000000 1.000000 0.000000
vn 0.000000 0.000000 1.000000
vn 0.000000 0.000000 1.000000
vn 0.000000 -1.000000 0.000000
vn 0.000000 -1.000000 0.000000
vn 0.000000 -1.000000 0.000000
vn 0.000000 -1.000000 0.000000
vn 0.000000 -1.000000 0.000000
vn 0.000000 -1.000000 0.000000
vn 0.000000 0.000000 -1.000000
vn 0.000000 0.000000 -1.000000
vn 0.000000 1.000000 0.000000
vn 0.000000 1.000000 0.000000
vn 0.000000 1.000000 0.000000
s 1
g litterBox
usemtl initialShadingGroup
f 19/33/1 46/66/2 47/68/3 18/32/4
s 2
f 52/73/5 53/74/6 48/69/7 17/31/8
s 3
f 23/38/9 41/61/10 42/62/11 22/37/12
s 4
f 20/35/13 45/65/14 56/79/15 57/80/16
s 5
f 55/78/17 16/30/18 13/24/19 54/76/20
s 6
f 15/27/21 59/82/22 60/84/23 14/25/24
s 2
f 24/39/25 49/70/26 50/71/27 34/51/28
s 6
f 37/55/29 11/19/30 10/17/31 36/53/32
s 4
f 39/58/33 43/63/34 44/64/35 21/36/36
s 5
f 9/16/37 12/22/38 40/60/39 33/50/40
s 2
f 24/39/25 17/31/8 48/69/7 49/70/26
s 6
f 11/19/30 15/27/21 14/25/24 10/17/31
s 4
f 21/36/36 44/64/35 45/65/14 20/35/13
s 5
f 13/24/19 16/30/18 12/22/38 9/16/37
s 2
f 51/72/41 52/73/5 17/31/8 25/40/42
s 1
f 27/42/43 19/33/1 18/32/4 26/41/44
s 4
f 28/44/45 20/35/13 57/80/16 58/81/46
f 29/45/47 21/36/36 20/35/13 28/44/45
f 38/57/48 39/58/33 21/36/36 29/45/47
s 3
f 31/47/49 23/38/9 22/37/12 30/46/50
s 2
f 32/48/51 24/39/25 34/51/28 35/52/52
f 32/48/51 25/40/42 17/31/8 24/39/25
f 62/87/53 51/72/41 25/40/42 61/86/54
s 1
f 64/89/55 27/42/43 26/41/44 63/88/56
s 4
f 66/92/57 28/44/45 58/81/46 65/91/58
f 67/93/59 29/45/47 28/44/45 66/92/57
f 68/94/60 38/57/48 29/45/47 67/93/59
s 3
f 70/96/61 31/47/49 30/46/50 69/95/62
s 2
f 72/98/63 32/48/51 35/52/52 71/97/64
f 72/98/63 61/86/54 25/40/42 32/48/51
f 34/51/28 50/71/27 41/61/65 23/38/66
f 35/52/52 34/51/28 23/38/66 31/47/67
f 71/97/64 35/52/52 31/47/67 70/96/68
s 6
f 7/13/69 37/55/29 36/53/32 5/14/70
s 4
f 69/95/71 30/46/72 38/57/48 68/94/60
f 30/46/72 22/37/73 39/58/33 38/57/48
f 22/37/73 42/62/74 43/63/34 39/58/33
s 5
f 33/50/40 40/60/39 8/11/75 6/12/76
s 3
f 41/61/10 6/6/77 8/8/78 42/62/11
s 4
f 43/63/34 42/62/74 8/8/79 40/59/80
f 44/64/35 43/63/34 40/59/80 12/21/81
f 45/65/14 44/64/35 12/21/81 16/29/82
f 56/79/15 45/65/14 16/29/82 55/77/83
s 1
f 47/68/3 46/66/2 2/2/84 4/4/85
s 2
f 48/69/7 53/74/6 54/75/86 13/23/87
f 49/70/26 48/69/7 13/23/87 9/15/88
f 50/71/27 49/70/26 9/15/88 33/49/89
f 41/61/65 50/71/27 33/49/89 6/6/90
f 26/41/91 18/32/92 52/73/5 51/72/41
f 18/32/92 47/68/93 53/74/6 52/73/5
f 54/75/86 53/74/6 47/68/93 4/4/94
s 5
f 2/2/95 55/78/17 54/76/20 4/4/96
s 4
f 46/67/97 56/79/15 55/77/83 2/10/98
f 57/80/16 56/79/15 46/67/97 19/34/99
f 58/81/46 57/80/16 19/34/99 27/43/100
f 65/91/58 58/81/46 27/43/100 64/90/101
s 6
f 60/84/23 59/82/22 1/1/102 3/3/103
s 2
f 63/88/104 26/41/91 51/72/41 62/87/53
f 60/85/105 62/87/53 61/86/54 14/26/106
f 3/3/107 63/88/104 62/87/53 60/85/105
s 1
f 1/1/108 64/89/55 63/88/56 3/3/109
s 4
f 59/83/110 65/91/58 64/90/101 1/9/111
f 15/28/112 66/92/57 65/91/58 59/83/110
f 11/20/113 67/93/59 66/92/57 15/28/112
f 37/56/114 68/94/60 67/93/59 11/20/113
f 7/7/115 69/95/71 68/94/60 37/56/114
s 3
f 5/5/116 70/96/61 69/95/62 7/7/117
s 2
f 36/54/118 71/97/64 70/96/68 5/5/119
f 10/18/120 72/98/63 71/97/64 36/54/118
f 14/26/106 61/86/54 72/98/63 10/18/120
